<svg version="1.1" id="Layer_1" xmlns="http://www.w3.org/2000/svg" xmlns:xlink="http://www.w3.org/1999/xlink" x="0px" y="0px"
	 width="100%" viewBox="0 0 500 500" enable-background="new 0 0 500 500" xml:space="preserve">
<path fill="#E4E2DD" opacity="1.000000" stroke="none" 
	d="
M331.000000,501.000000 
	C222.000031,501.000000 113.500031,500.979279 5.000180,501.095398 
	C1.576357,501.099060 0.903033,500.423889 0.905298,497.000031 
	C1.013776,333.000122 1.013757,169.000153 0.905339,5.000259 
	C0.903075,1.576987 1.575755,0.903019 4.999864,0.905285 
	C168.999756,1.013775 332.999725,1.013760 496.999634,0.905354 
	C500.422638,0.903092 501.096985,1.575407 501.094727,4.999744 
	C500.986206,168.999634 500.986237,332.999603 501.094604,496.999512 
	C501.096893,500.422272 500.426117,501.105774 497.000183,501.097229 
	C441.833710,500.959534 386.666809,501.000000 331.000000,501.000000 
z"/>
<path fill="#2C2C2C" opacity="1.000000" stroke="none" 
	d="
M211.336151,413.999878 
	C211.336166,384.505798 211.270828,355.511444 211.415359,326.518127 
	C211.434296,322.718689 210.704712,321.779327 206.714859,322.447296 
	C191.672867,324.965454 176.458252,323.529419 161.315964,323.820221 
	C155.319412,323.935364 149.307739,324.059052 143.324142,323.757751 
	C139.662384,323.573395 138.503189,324.540100 138.564331,328.384216 
	C138.802795,343.377319 138.661423,358.376495 138.661392,373.373413 
	C138.661346,399.034790 138.668442,424.696198 138.656754,450.357574 
	C138.653549,457.402222 138.033661,457.998230 130.947113,458.000336 
	C115.117035,458.005066 99.286957,458.009491 83.456886,457.998169 
	C76.892189,457.993469 76.069038,457.151764 76.068459,450.426544 
	C76.063171,389.272461 76.108582,328.118286 75.967873,266.964508 
	C75.958527,262.900787 77.170502,262.063080 80.992325,262.077911 
	C116.984375,262.217560 152.977219,262.186890 188.969772,262.143799 
	C199.214554,262.131531 209.193420,260.668610 218.474152,255.952271 
	C230.957443,249.608429 237.194794,239.420807 237.240326,225.443542 
	C237.287216,211.041672 231.360962,200.044174 218.500061,193.167953 
	C209.211487,188.201706 199.153320,186.059204 188.702362,186.034470 
	C152.876602,185.949646 117.050201,185.933487 81.224991,186.097076 
	C77.200348,186.115448 75.877411,185.332596 75.951385,181.017334 
	C76.234085,164.525558 76.049263,148.026047 76.075340,131.529480 
	C76.084419,125.788528 77.018631,124.837074 82.774788,124.842377 
	C120.432365,124.877022 158.089951,124.932007 195.747421,125.022049 
	C198.404877,125.028404 201.115280,125.098328 203.706650,125.613533 
	C208.199127,126.506706 212.521545,125.027977 216.846985,125.005661 
	C256.502045,124.801147 296.168793,124.511581 335.811859,125.286224 
	C356.988281,125.700020 377.302551,131.065140 395.589966,142.412949 
	C416.802246,155.575668 428.922241,174.979813 433.514221,199.182190 
	C437.453491,219.944366 437.274475,240.627792 429.928253,260.745544 
	C420.993988,285.212067 403.551239,301.477600 379.826996,311.275238 
	C375.665436,312.993896 375.078674,314.487610 376.983734,318.586914 
	C397.228027,362.148010 417.264679,405.805695 437.350250,449.440552 
	C440.650940,456.611115 439.802032,457.998291 432.167389,458.000275 
	C414.337708,458.004913 396.506653,457.879913 378.679352,458.086823 
	C374.182587,458.139008 371.789124,456.522064 369.927277,452.450104 
	C351.060608,411.187134 331.945953,370.037384 313.154816,328.740326 
	C311.234711,324.520538 308.992584,323.221558 304.572937,323.421509 
	C296.590912,323.782562 288.571594,323.753357 280.586182,323.432220 
	C276.227600,323.256927 274.724854,324.244415 274.750763,329.032440 
	C274.968903,369.356293 274.877167,409.681854 274.871948,450.006897 
	C274.871002,457.170837 274.031708,457.998474 266.838745,458.000427 
	C250.675400,458.004791 234.512039,458.012970 218.348709,457.995941 
	C212.477448,457.989746 211.371262,456.911316 211.351166,450.994141 
	C211.309875,438.829498 211.337097,426.664642 211.336151,413.999878 
z"/>
<path fill="#E3E1DC" opacity="1.000000" stroke="none" 
	d="
M319.994751,262.163452 
	C312.334686,262.163239 305.173431,262.138550 298.012482,262.177856 
	C295.926910,262.189301 294.427704,262.240570 295.452209,259.241058 
	C302.880493,237.492477 302.305359,210.710526 294.023407,184.917114 
	C313.150574,185.896454 332.341095,182.252670 350.612427,190.227264 
	C367.042938,197.398392 374.307953,210.894150 372.131195,230.383911 
	C370.431732,245.600189 359.184967,256.844055 342.818207,260.163452 
	C335.417908,261.664368 327.993225,262.149231 319.994751,262.163452 
z"/>
</svg>